<svg width="212" height="192" viewBox="0 0 212 192" fill="none" xmlns="http://www.w3.org/2000/svg">
<path fill-rule="evenodd" clip-rule="evenodd" d="M186.652 0C180.152 9 156.252 26.9 112.652 26.5C69.0516 26.1 51.6516 39 22.1516 64C6.48494 83.8333 -16.3484 127.9 17.6516 145.5L41.6516 127C28.3182 122.667 6.45156 106.7 25.6516 77.5C29.8182 70.3333 46.2516 56.8 78.6516 60C73.3182 80 62.4516 121.8 61.6516 129C61.5798 129.646 61.4642 130.488 61.3256 131.497C59.5349 144.54 53.9157 185.467 89.6516 191.5C101.619 193.52 112.363 188.964 121.468 181.473C128.356 188.594 137.834 193.008 150.652 191.5C184.652 187.5 195.152 136.167 196.152 111C200.318 110.333 209.152 106.3 211.152 95.5C213.652 82 200.652 83.5 196.152 84.5C194.237 84.9254 195.399 86.0746 196.982 87.6397C199.12 89.7539 202.025 92.627 199.152 95.5C196.28 98.3718 192.418 93.821 188.609 89.332C185.786 86.0055 182.993 82.7128 180.652 82.5L180.482 82.4846C174.958 81.981 165.595 81.1275 160.152 93.5C163.152 97.3333 169.252 106.2 169.652 111C169.717 111.785 169.894 112.867 170.113 114.211C171.573 123.138 174.927 143.658 160.152 166C150.316 180.873 139.365 177.669 131.723 171.137C140.719 160.309 147.249 147.497 150.652 138.5C152.652 128 151.452 107.2 130.652 108C109.852 108.8 104.985 128.667 105.152 138.5C105.624 147.638 108.219 160.871 114.414 171.864C113.376 172.678 112.289 173.396 111.152 174C97.8999 181.04 93.5658 172.989 91.0475 168.311C90.5252 167.34 90.081 166.515 89.6516 166C87.1516 163 84.6516 121.5 117.652 63C134.652 63.5 168.066 59.2954 176.652 43.5C188.609 21.5 185.985 7.5 186.652 0ZM123.928 160.01C121.577 149.651 119.216 132.624 124.652 129C132.152 124 134.152 130.5 133.652 132.5C133.622 132.618 133.573 132.838 133.504 133.148C132.794 136.347 129.941 149.187 123.928 160.01Z" fill="#CC93C4" fill-opacity="0.23"/>
</svg>
